<mxfile host="app.diagrams.net" modified="2024-04-12T13:04:40.162Z" agent="Mozilla/5.0 (Windows NT 10.0; Win64; x64) AppleWebKit/537.36 (KHTML, like Gecko) Chrome/123.0.0.0 Safari/537.36" etag="-Te27yeo7fwQCiA8a_jv" version="24.2.2" type="google">
  <diagram name="Seite-1" id="AYKUNwrcssRPMjw7vjmA">
    <mxGraphModel grid="1" page="1" gridSize="10" guides="1" tooltips="1" connect="1" arrows="1" fold="1" pageScale="1" pageWidth="1169" pageHeight="827" math="0" shadow="0">
      <root>
        <mxCell id="0" />
        <mxCell id="1" parent="0" />
        <mxCell id="bwKOdq43fQvSFr8N1AC5-4" style="edgeStyle=orthogonalEdgeStyle;rounded=0;orthogonalLoop=1;jettySize=auto;html=1;exitX=1;exitY=0.25;exitDx=0;exitDy=0;entryX=0;entryY=0.25;entryDx=0;entryDy=0;" edge="1" parent="1" source="bwKOdq43fQvSFr8N1AC5-1" target="bwKOdq43fQvSFr8N1AC5-3">
          <mxGeometry relative="1" as="geometry" />
        </mxCell>
        <mxCell id="bwKOdq43fQvSFr8N1AC5-5" style="edgeStyle=orthogonalEdgeStyle;rounded=0;orthogonalLoop=1;jettySize=auto;html=1;exitX=1;exitY=0.75;exitDx=0;exitDy=0;entryX=0;entryY=0.75;entryDx=0;entryDy=0;" edge="1" parent="1" source="bwKOdq43fQvSFr8N1AC5-1" target="bwKOdq43fQvSFr8N1AC5-3">
          <mxGeometry relative="1" as="geometry" />
        </mxCell>
        <mxCell id="bwKOdq43fQvSFr8N1AC5-1" value="Battery" style="rounded=0;whiteSpace=wrap;html=1;" vertex="1" parent="1">
          <mxGeometry x="170" y="180" width="120" height="270" as="geometry" />
        </mxCell>
        <mxCell id="bwKOdq43fQvSFr8N1AC5-6" style="edgeStyle=orthogonalEdgeStyle;rounded=0;orthogonalLoop=1;jettySize=auto;html=1;" edge="1" parent="1" source="bwKOdq43fQvSFr8N1AC5-2">
          <mxGeometry relative="1" as="geometry">
            <mxPoint x="430" y="250" as="targetPoint" />
          </mxGeometry>
        </mxCell>
        <mxCell id="bwKOdq43fQvSFr8N1AC5-2" value="Current Sensor precise (10mA)" style="rounded=1;whiteSpace=wrap;html=1;" vertex="1" parent="1">
          <mxGeometry x="260" y="60" width="120" height="60" as="geometry" />
        </mxCell>
        <mxCell id="bwKOdq43fQvSFr8N1AC5-3" value="Load / Source" style="rounded=0;whiteSpace=wrap;html=1;" vertex="1" parent="1">
          <mxGeometry x="690" y="190" width="120" height="260" as="geometry" />
        </mxCell>
        <mxCell id="bwKOdq43fQvSFr8N1AC5-8" style="edgeStyle=orthogonalEdgeStyle;rounded=0;orthogonalLoop=1;jettySize=auto;html=1;" edge="1" parent="1" source="bwKOdq43fQvSFr8N1AC5-7">
          <mxGeometry relative="1" as="geometry">
            <mxPoint x="450" y="250" as="targetPoint" />
          </mxGeometry>
        </mxCell>
        <mxCell id="bwKOdq43fQvSFr8N1AC5-7" value="Current Sensor (1A)" style="rounded=1;whiteSpace=wrap;html=1;" vertex="1" parent="1">
          <mxGeometry x="440" y="60" width="120" height="60" as="geometry" />
        </mxCell>
        <mxCell id="bwKOdq43fQvSFr8N1AC5-12" style="edgeStyle=orthogonalEdgeStyle;rounded=0;orthogonalLoop=1;jettySize=auto;html=1;" edge="1" parent="1" source="bwKOdq43fQvSFr8N1AC5-9">
          <mxGeometry relative="1" as="geometry">
            <mxPoint x="580" y="260" as="targetPoint" />
          </mxGeometry>
        </mxCell>
        <mxCell id="bwKOdq43fQvSFr8N1AC5-9" value="Voltage Sensor precise (1mV)" style="rounded=1;whiteSpace=wrap;html=1;" vertex="1" parent="1">
          <mxGeometry x="590" y="10" width="120" height="60" as="geometry" />
        </mxCell>
        <mxCell id="bwKOdq43fQvSFr8N1AC5-11" style="edgeStyle=orthogonalEdgeStyle;rounded=0;orthogonalLoop=1;jettySize=auto;html=1;" edge="1" parent="1" source="bwKOdq43fQvSFr8N1AC5-10">
          <mxGeometry relative="1" as="geometry">
            <mxPoint x="630" y="260" as="targetPoint" />
          </mxGeometry>
        </mxCell>
        <mxCell id="bwKOdq43fQvSFr8N1AC5-10" value="Voltage Sensor (100&lt;span style=&quot;background-color: initial;&quot;&gt;mV)&lt;/span&gt;" style="rounded=1;whiteSpace=wrap;html=1;" vertex="1" parent="1">
          <mxGeometry x="720" y="70" width="120" height="60" as="geometry" />
        </mxCell>
      </root>
    </mxGraphModel>
  </diagram>
</mxfile>
